<svg width="77" height="41" viewBox="0 0 77 41" fill="none" xmlns="http://www.w3.org/2000/svg">
<path d="M6.64 40.8C6.53333 40.8 6.48 40.7467 6.48 40.64C6.48 40.48 6.56 40.4 6.72 40.4C7.97333 40.4 9.17333 40.2 10.32 39.8C11.4933 39.4267 12.6133 38.9067 13.68 38.24C12.08 38 10.5467 37.5333 9.08 36.84C7.64 36.1467 6.34667 35.2 5.2 34C4.08 32.8267 3.18667 31.3867 2.52 29.68C1.88 27.9733 1.56 26 1.56 23.76C1.56 22.3467 1.86667 20.92 2.48 19.48C1.89333 18.6267 1.42667 17.68 1.08 16.64C0.733333 15.5733 0.56 14.4133 0.56 13.16C0.56 11.4267 1 9.77333 1.88 8.2C2.76 6.62667 3.96 5.22666 5.48 4C7 2.77333 8.74667 1.81333 10.72 1.12C12.6933 0.399999 14.7733 0.039999 16.96 0.039999C19.2533 0.039999 21.5467 0.306665 23.84 0.839998C26.16 1.34666 28.4667 1.97333 30.76 2.72C33.08 3.46666 35.3733 4.17333 37.64 4.84C38.8133 3.61333 39.9333 2.68 41 2.04C42.0933 1.37333 43.1333 1.04 44.12 1.04C44.5733 1.04 44.96 1.09333 45.28 1.2C45.36 1.22666 45.4 1.28 45.4 1.36C45.4 1.57333 45.3067 1.65333 45.12 1.6C44.88 1.52 44.64 1.48 44.4 1.48C43.5733 1.48 42.7067 1.81333 41.8 2.48C40.8933 3.14666 39.96 4.06666 39 5.24C40.6533 5.69333 42.2933 6.08 43.92 6.4C45.5467 6.69333 47.1467 6.84 48.72 6.84C49.92 6.84 51.0667 6.65333 52.16 6.28C53.2533 5.90667 54.1467 5.37333 54.84 4.68C55.5333 3.96 55.8533 3.12 55.8 2.16V2.12C55.8 1.93333 55.8933 1.84 56.08 1.84C56.2933 1.84 56.4 2.01333 56.4 2.36C56.4 3.48 56 4.41333 55.2 5.16C54.4 5.90667 53.4133 6.48 52.24 6.88C51.0667 7.25333 49.8933 7.44 48.72 7.44C47.0133 7.44 45.28 7.33333 43.52 7.12C41.76 6.88 39.9867 6.58666 38.2 6.24C37.24 7.54667 36.2667 9.04 35.28 10.72C34.32 12.4 33.3733 14.2133 32.44 16.16C33.32 16.5067 34.24 16.8133 35.2 17.08C36.1867 17.3467 37.2133 17.48 38.28 17.48C38.4133 17.48 38.5467 17.48 38.68 17.48C38.8133 17.4533 38.9333 17.4267 39.04 17.4C39.36 16.9467 39.6933 16.5067 40.04 16.08C40.4133 15.6533 40.8133 15.3067 41.24 15.04C41.3467 14.9867 41.44 14.96 41.52 14.96C41.68 14.96 41.8267 15.0267 41.96 15.16C42.12 15.2933 42.1467 15.4667 42.04 15.68C41.7733 16.2667 41.4133 16.76 40.96 17.16C40.5067 17.5333 40.0133 17.7867 39.48 17.92C38.9733 18.6933 38.5333 19.5333 38.16 20.44C37.8133 21.32 37.6533 22.0267 37.68 22.56V22.6C37.68 22.7867 37.5867 22.88 37.4 22.88C37.1867 22.88 37.08 22.76 37.08 22.52C37.08 22.12 37.2133 21.4933 37.48 20.64C37.7467 19.7867 38.1333 18.92 38.64 18.04C38.48 18.0667 38.32 18.08 38.16 18.08C38.0267 18.08 37.88 18.08 37.72 18.08C36.76 18.08 35.8 17.9733 34.84 17.76C33.9067 17.52 32.9733 17.2667 32.04 17C31.8533 17.4267 31.6533 17.8667 31.44 18.32C31.2533 18.7467 31.0667 19.1867 30.88 19.64C29.84 22.0133 28.6133 24.36 27.2 26.68C25.8133 28.9733 24.24 31.08 22.48 33C20.7467 34.9467 18.8267 36.5733 16.72 37.88C18.48 37.88 20.1867 37.6133 21.84 37.08C23.52 36.5467 25.0267 35.7733 26.36 34.76C27.72 33.7467 28.8 32.52 29.6 31.08C30.4 29.6133 30.8 27.96 30.8 26.12C30.8 25.9067 30.9067 25.8 31.12 25.8C31.3067 25.8 31.4 25.9067 31.4 26.12C31.4 28.12 30.9467 29.9067 30.04 31.48C29.16 33.0267 27.96 34.32 26.44 35.36C24.9467 36.4267 23.2667 37.2267 21.4 37.76C19.5333 38.2933 17.64 38.52 15.72 38.44C14.36 39.1867 12.92 39.76 11.4 40.16C9.88 40.5867 8.29333 40.8 6.64 40.8ZM2.88 18.68C3.70667 17.08 4.81333 15.6267 6.2 14.32C7.58667 12.9867 9.10667 11.9333 10.76 11.16C12.4133 10.36 14.0533 9.96 15.68 9.96C18.1867 9.96 20.1867 10.3333 21.68 11.08C23.2 11.8267 24.2667 12.7467 24.88 13.84H25.2C26.08 13.84 26.9467 13.9867 27.8 14.28C28.6533 14.5733 29.4933 14.8933 30.32 15.24C31.4133 13.3467 32.4933 11.6267 33.56 10.08C34.6267 8.50666 35.6533 7.13333 36.64 5.96C33.36 5.29333 30.0533 4.62666 26.72 3.96C23.3867 3.26666 20.0667 2.92 16.76 2.92C14.92 2.92 13.0933 3.13333 11.28 3.56C9.46667 3.98666 7.82667 4.62666 6.36 5.48C4.89333 6.33333 3.70667 7.38666 2.8 8.64C1.92 9.86666 1.48 11.2933 1.48 12.92C1.48 15.1333 1.94667 17.0533 2.88 18.68ZM14.2 24.12C16.28 24.12 18.0667 23.7333 19.56 22.96C21.0533 22.16 22.2 21.1733 23 20C23.8267 18.8 24.24 17.5867 24.24 16.36C24.24 16.2267 24.2267 16.0933 24.2 15.96C24.2 15.8 24.1867 15.6533 24.16 15.52C22.96 15.5733 22.08 15.76 21.52 16.08C20.96 16.3733 20.5867 16.7333 20.4 17.16C20.24 17.56 20.16 17.9733 20.16 18.4C20.16 18.5867 20.0667 18.68 19.88 18.68C19.6667 18.68 19.56 18.5867 19.56 18.4C19.56 17.92 19.6667 17.3733 19.88 16.76C20.0933 16.1467 20.48 15.5733 21.04 15.04C21.6267 14.5067 22.48 14.1467 23.6 13.96C23.0933 12.9733 22.1867 12.16 20.88 11.52C19.5733 10.88 17.84 10.56 15.68 10.56C14.0267 10.56 12.4 10.9867 10.8 11.84C9.2 12.6933 7.77333 13.8267 6.52 15.24C5.26667 16.6533 4.32 18.2 3.68 19.88C4.82667 21.2933 6.32 22.36 8.16 23.08C10 23.7733 12.0133 24.12 14.2 24.12ZM14.52 37.72C16.12 36.5467 17.6133 35.1333 19 33.48C20.4133 31.8267 21.7067 30.0667 22.88 28.2C24.08 26.3333 25.1733 24.4933 26.16 22.68C27.1733 20.8667 28.08 19.2267 28.88 17.76L29.72 16.32C29 16.1067 28.28 15.9333 27.56 15.8C26.8667 15.64 26.16 15.5467 25.44 15.52C25.4667 15.6533 25.48 15.8 25.48 15.96C25.5067 16.0933 25.52 16.24 25.52 16.4C25.52 17.7067 25.0667 19 24.16 20.28C23.2533 21.56 21.96 22.6267 20.28 23.48C18.6 24.3067 16.5733 24.72 14.2 24.72C12.12 24.72 10.12 24.3733 8.2 23.68C6.30667 22.9867 4.72 21.9733 3.44 20.64C3.12 21.68 2.96 22.72 2.96 23.76C2.96 26.6667 3.49333 29.1067 4.56 31.08C5.65333 33.0533 7.08 34.5733 8.84 35.64C10.6 36.7333 12.4933 37.4267 14.52 37.72ZM39.8388 32.2C38.9588 32.2 38.3454 31.96 37.9988 31.48C37.6788 30.9733 37.5188 30.36 37.5188 29.64C37.5188 28.8667 37.6521 28.0533 37.9188 27.2C38.1854 26.32 38.4388 25.6133 38.6788 25.08C39.3988 23.4 40.3054 22.0933 41.3988 21.16C42.4921 20.2 43.4921 19.72 44.3988 19.72C45.1721 19.72 45.6921 19.9467 45.9588 20.4C46.2521 20.8533 46.3988 21.4133 46.3988 22.08C46.3988 22.7733 46.2788 23.5067 46.0388 24.28C45.8254 25.0267 45.5854 25.6667 45.3188 26.2C44.9988 26.8667 44.6654 27.4933 44.3188 28.08C43.9721 28.6667 43.6121 29.2 43.2388 29.68C43.4788 29.8933 43.7721 30 44.1188 30C44.6521 30 45.1721 29.7467 45.6788 29.24C46.2121 28.7333 46.7054 28.1067 47.1588 27.36C47.6388 26.6133 48.0521 25.8933 48.3988 25.2C48.7721 24.5067 49.0521 23.9867 49.2388 23.64C49.2921 23.56 49.3454 23.52 49.3988 23.52C49.4521 23.52 49.5054 23.5733 49.5588 23.68C49.6121 23.76 49.6121 23.8533 49.5588 23.96C49.1321 24.8667 48.5988 25.88 47.9588 27C47.3454 28.12 46.6521 29.04 45.8788 29.76C45.5588 30.0533 45.2521 30.2667 44.9588 30.4C44.6654 30.5333 44.3988 30.6 44.1588 30.6C43.7054 30.6 43.3054 30.4267 42.9588 30.08C42.4521 30.7467 41.9321 31.2667 41.3988 31.64C40.8654 32.0133 40.3454 32.2 39.8388 32.2ZM40.3188 31.6C40.6121 31.6 40.9588 31.4267 41.3588 31.08C41.7588 30.7067 42.1721 30.2267 42.5987 29.64C42.5987 29.64 42.5188 29.5067 42.3588 29.24C42.2254 28.9733 42.1588 28.5733 42.1588 28.04C42.1588 27.8267 42.1721 27.6 42.1988 27.36C42.2254 27.0933 42.2921 26.8267 42.3988 26.56C42.5854 26.0267 42.8121 25.64 43.0788 25.4C43.3454 25.1333 43.6121 25 43.8788 25C44.1188 25 44.3054 25.12 44.4388 25.36C44.5988 25.5733 44.6388 25.8933 44.5588 26.32C44.9321 25.4933 45.2388 24.6933 45.4788 23.92C45.7188 23.12 45.8388 22.4267 45.8388 21.84C45.8388 21.3867 45.7454 21.0267 45.5588 20.76C45.3988 20.4667 45.1054 20.32 44.6788 20.32C44.3054 20.32 43.8788 20.56 43.3988 21.04C42.9188 21.4933 42.4254 22.1067 41.9188 22.88C41.4388 23.6267 40.9854 24.44 40.5588 25.32C40.1588 26.2 39.8254 27.0667 39.5588 27.92C39.3188 28.7467 39.1988 29.4667 39.1988 30.08C39.1988 30.5333 39.2788 30.9067 39.4388 31.2C39.6254 31.4667 39.9188 31.6 40.3188 31.6ZM49.7606 32.2C48.8806 32.2 48.2673 31.96 47.9206 31.48C47.6006 30.9733 47.4406 30.36 47.4406 29.64C47.4406 28.8667 47.574 28.0533 47.8406 27.2C48.1073 26.32 48.3606 25.6133 48.6006 25.08C49.3206 23.4 50.2273 22.0933 51.3206 21.16C52.414 20.2 53.414 19.72 54.3206 19.72C55.094 19.72 55.614 19.9467 55.8806 20.4C56.174 20.8533 56.3206 21.4133 56.3206 22.08C56.3206 22.7733 56.2006 23.5067 55.9606 24.28C55.7473 25.0267 55.5073 25.6667 55.2406 26.2C54.9206 26.8667 54.5873 27.4933 54.2406 28.08C53.894 28.6667 53.534 29.2 53.1606 29.68C53.4006 29.8933 53.694 30 54.0406 30C54.574 30 55.094 29.7467 55.6006 29.24C56.134 28.7333 56.6273 28.1067 57.0806 27.36C57.5606 26.6133 57.974 25.8933 58.3206 25.2C58.694 24.5067 58.974 23.9867 59.1606 23.64C59.214 23.56 59.2673 23.52 59.3206 23.52C59.374 23.52 59.4273 23.5733 59.4806 23.68C59.534 23.76 59.534 23.8533 59.4806 23.96C59.054 24.8667 58.5206 25.88 57.8806 27C57.2673 28.12 56.574 29.04 55.8006 29.76C55.4806 30.0533 55.174 30.2667 54.8806 30.4C54.5873 30.5333 54.3206 30.6 54.0806 30.6C53.6273 30.6 53.2273 30.4267 52.8806 30.08C52.374 30.7467 51.854 31.2667 51.3206 31.64C50.7873 32.0133 50.2673 32.2 49.7606 32.2ZM50.2406 31.6C50.534 31.6 50.8806 31.4267 51.2806 31.08C51.6806 30.7067 52.094 30.2267 52.5206 29.64C52.5206 29.64 52.4406 29.5067 52.2806 29.24C52.1473 28.9733 52.0806 28.5733 52.0806 28.04C52.0806 27.8267 52.094 27.6 52.1206 27.36C52.1473 27.0933 52.214 26.8267 52.3206 26.56C52.5073 26.0267 52.734 25.64 53.0006 25.4C53.2673 25.1333 53.534 25 53.8006 25C54.0406 25 54.2273 25.12 54.3606 25.36C54.5206 25.5733 54.5606 25.8933 54.4806 26.32C54.854 25.4933 55.1606 24.6933 55.4006 23.92C55.6406 23.12 55.7606 22.4267 55.7606 21.84C55.7606 21.3867 55.6673 21.0267 55.4806 20.76C55.3206 20.4667 55.0273 20.32 54.6006 20.32C54.2273 20.32 53.8006 20.56 53.3206 21.04C52.8406 21.4933 52.3473 22.1067 51.8406 22.88C51.3606 23.6267 50.9073 24.44 50.4806 25.32C50.0806 26.2 49.7473 27.0667 49.4806 27.92C49.2406 28.7467 49.1206 29.4667 49.1206 30.08C49.1206 30.5333 49.2006 30.9067 49.3606 31.2C49.5473 31.4667 49.8406 31.6 50.2406 31.6ZM59.5225 32.2C58.6425 32.2 58.0292 31.9467 57.6825 31.44C57.3625 30.9333 57.2025 30.32 57.2025 29.6C57.2025 28.8267 57.3225 28.0133 57.5625 27.16C57.8292 26.3067 58.0958 25.6133 58.3625 25.08C59.2958 23.1333 60.6025 21.6933 62.2825 20.76C63.9892 19.8267 65.7358 19.4267 67.5225 19.56C68.1358 18.3067 68.7758 17 69.4425 15.64C70.1358 14.2533 70.7758 12.9467 71.3625 11.72C71.9758 10.4667 72.4958 9.4 72.9225 8.52C73.3758 7.61333 73.6692 7.01333 73.8025 6.72C74.2558 6.61333 74.7492 6.49333 75.2825 6.36C75.8158 6.2 76.2958 6.02667 76.7225 5.84C76.4558 6.29333 76.0292 7 75.4425 7.96C74.8825 8.92 74.2292 10.0533 73.4825 11.36C72.7625 12.64 72.0025 14.0133 71.2025 15.48C70.4025 16.9467 69.6292 18.4267 68.8825 19.92V20C68.8825 20.1067 68.8158 20.2 68.6825 20.28C68.0158 21.64 67.4025 22.9467 66.8425 24.2C66.3092 25.4533 65.8692 26.6 65.5225 27.64C65.2025 28.6533 65.0425 29.4933 65.0425 30.16C65.0425 30.9067 65.2958 31.28 65.8025 31.28C66.0958 31.28 66.4292 31.16 66.8025 30.92C67.1758 30.68 67.5358 30.3867 67.8825 30.04C68.7358 29.1867 69.4692 28.2267 70.0825 27.16C70.7225 26.0933 71.3225 25.0267 71.8825 23.96C71.8825 23.9067 71.9092 23.88 71.9625 23.88C72.1492 23.88 72.2425 23.9867 72.2425 24.2C72.2425 24.2 72.1758 24.32 72.0425 24.56C71.9092 24.8 71.8292 24.9333 71.8025 24.96C71.3225 25.8933 70.8292 26.7867 70.3225 27.64C69.8158 28.4933 69.2025 29.3067 68.4825 30.08C68.0825 30.5067 67.5625 30.96 66.9225 31.44C66.3092 31.92 65.6958 32.16 65.0825 32.16C64.4692 32.16 64.0425 31.92 63.8025 31.44C63.5892 30.96 63.4825 30.4267 63.4825 29.84C63.4825 29.4667 63.5092 29.1067 63.5625 28.76C63.6158 28.4133 63.6825 28.1067 63.7625 27.84C63.5758 28.32 63.2425 28.9067 62.7625 29.6C62.3092 30.2933 61.7892 30.9067 61.2025 31.44C60.6425 31.9467 60.0825 32.2 59.5225 32.2ZM60.0025 31.6C60.3758 31.6 60.7892 31.3467 61.2425 30.84C61.7225 30.3333 62.1892 29.72 62.6425 29C63.1225 28.2533 63.5492 27.5333 63.9225 26.84C64.2958 26.12 64.5758 25.5733 64.7625 25.2L67.2825 20.08C65.9758 20.1067 64.8025 20.4667 63.7625 21.16C62.7492 21.8533 61.8825 22.7333 61.1625 23.8C60.4425 24.84 59.8958 25.9067 59.5225 27C59.1492 28.0933 58.9625 29.04 58.9625 29.84C58.9625 30.3733 59.0425 30.8 59.2025 31.12C59.3892 31.44 59.6558 31.6 60.0025 31.6Z" fill="white"/>
</svg>
